<mxfile host="app.diagrams.net" modified="2024-07-11T18:52:54.458Z" agent="Mozilla/5.0 (Windows NT 10.0; Win64; x64) AppleWebKit/537.36 (KHTML, like Gecko) Chrome/126.0.0.0 Safari/537.36" version="24.6.5" etag="rVYuwxAoLBLg3f7lbzaV" type="github">
  <diagram name="Страница — 1" id="s8n8cO4NwGtxQRzfZaGY">
    <mxGraphModel>
      <root>
        <mxCell id="0" />
        <mxCell id="1" parent="0" />
      </root>
    </mxGraphModel>
  </diagram>
</mxfile>
